<svg width="161" height="162" viewBox="0 0 161 162" fill="none" xmlns="http://www.w3.org/2000/svg">
<path fill-rule="evenodd" clip-rule="evenodd" d="M153.002 64C157.419 64 161 67.579 161 72.01V88.99C161 93.414 157.412 97 153.002 97H7.998C3.58 97 0 93.421 0 88.99V72.01C0 67.586 3.588 64 7.998 64H153.002V64ZM153.002 129C157.419 129 161 132.579 161 137.01V153.99C161 158.414 157.412 162 153.002 162H7.998C3.58 162 0 158.421 0 153.99V137.01C0 132.586 3.588 129 7.998 129H153.002V129ZM153.002 0C157.419 0 161 3.579 161 8.01V24.99C161 29.414 157.412 33 153.002 33H7.998C3.58 33 0 29.421 0 24.99V8.01C0 3.586 3.588 0 7.998 0H153.002V0Z" fill="#3f51b5"/>
</svg>
